<svg xmlns="http://www.w3.org/2000/svg" width="128" height="128"><defs><style>.cls-1 { fill: #1cd3a2; fill-rule: evenodd; }</style></defs><path id="Spinners_AJAX_loaders" d="M118.7 57.3a11.6 11.6 0 0 0-8.4-3.6 12 12 0 0 0-12 12 12 12 0 0 0 12 11.8 11.5 11.5 0 0 0 8.4-3.5 11.7 11.7 0 0 0 0-16.7zM96 88.3a10.5 10.5 0 0 0-7.8 3.3 10.2 10.2 0 0 0-3 7.6 10.6 10.6 0 0 0 3 7.7 10.4 10.4 0 0 0 7.7 3 10.3 10.3 0 0 0 7.3-3 10.5 10.5 0 0 0 3.3-8 10.2 10.2 0 0 0-3.3-7.6 10.4 10.4 0 0 0-7.6-3.2zM97.4 46a13 13 0 0 0 13-13 13 13 0 1 0-26 0 13 13 0 0 0 13 13zM62 102.5a9.3 9.3 0 0 0-7 2.8 9.5 9.5 0 0 0-2.6 7 9.2 9.2 0 0 0 2.8 7 10 10 0 0 0 13.8 0 9.2 9.2 0 0 0 3-7 9.6 9.6 0 0 0-3-7 9.4 9.4 0 0 0-6.8-2.7zm0-97a13.6 13.6 0 0 0-10 4 13.4 13.4 0 0 0-4 10 13.7 13.7 0 0 0 4 10 14.2 14.2 0 0 0 20 0 13.7 13.7 0 0 0 4-10 13.4 13.4 0 0 0-4-10 13.6 13.6 0 0 0-10-4zm-33.6 34a6.3 6.3 0 0 0 4.6-2 6.5 6.5 0 0 0 0-9 6.6 6.6 0 0 0-9 0 6.5 6.5 0 0 0 4.5 11zm0 50.5a8.6 8.6 0 0 0-6 2.6 8 8 0 0 0-2.7 6 8.3 8.3 0 0 0 2.6 6 8.5 8.5 0 0 0 12.2 0 8.3 8.3 0 0 0 2.6-6 8 8 0 0 0-2.4-6 8.6 8.6 0 0 0-6-2.6zm-10-29.5a7.2 7.2 0 0 0-5.2-2.3 7.5 7.5 0 0 0-5.2 2 7.3 7.3 0 0 0-2.3 5.4 7.4 7.4 0 0 0 7.6 7.6 7.2 7.2 0 0 0 5.3-2.2 7.5 7.5 0 0 0 2.3-5.4 7.3 7.3 0 0 0-2.6-5.3z" data-name="Spinners AJAX loaders" class="cls-1"/></svg>